#!OML:ASF H:\Not Pregnant\Project 1\Capture day 1\Session 1\non-pregnant.ASF
:FULLY-SPECIFIED
:DEGREES
656
root 4.05771 14.1624 15.1334 32.4782 -22.5894 -10.1866
lowerback 19.4346 1.51535 7.03037
upperback -3.42513 3.92272 1.01665
thorax -14.5133 1.2389 -4.06156
lowerneck 4.48833 -12.5402 -22.8388
upperneck -39.3097 -11.6826 49.6717
head -5.6771 -9.17616 30.4961
rclavicle 2.62396e-014 -3.57812e-015
rhumerus -42.1695 -28.9918 -60.3807
rradius 13.017
rwrist 81.5063
rhand -47.9672 0.494677
rfingers 7.12502
rthumb -20.6369 -28.4282
lclavicle 2.62396e-014 -3.57812e-015
lhumerus -43.9566 -6.76862 81.2653
lradius 23.4783
lwrist -12.0459
lhand -29.7143 -52.489
lfingers 7.12502
lthumb -3.04155 -22.531
rfemur -70.7967 2.33143 31.9765
rtibia 66.8143
rfoot -22.5937 1.20108
rtoes -4.8075
lfemur -76.8161 8.47474 -12.8271
ltibia 69.8459
lfoot -19.6147 3.85814
ltoes -23.7077
657
root 4.05382 14.2497 15.1817 32.4639 -22.6358 -10.099
lowerback 19.1472 1.52104 7.02003
upperback -3.51668 3.90094 0.958556
thorax -14.4484 1.22947 -4.10215
lowerneck 4.47502 -12.5894 -22.8496
upperneck -39.4494 -11.7453 49.7331
head -5.67527 -9.21463 30.5643
rclavicle 2.28602e-015 9.0447e-015
rhumerus -39.8688 -25.329 -64.6851
rradius 13.6088
rwrist 76.327
rhand -44.1636 -0.390801
rfingers 7.12502
rthumb -16.9787 -29.6687
lclavicle 2.28602e-015 9.0447e-015
lhumerus -43.294 -6.54244 81.4527
lradius 23.8922
lwrist -11.3158
lhand -25.8083 -44.6516
lfingers 7.12502
lthumb 0.730913 -14.6731
rfemur -69.9236 2.3204 31.7636
rtibia 65.6472
rfoot -22.2795 1.14573
rtoes -5.30176
lfemur -75.8987 8.25759 -12.8402
ltibia 68.742
lfoot -19.3738 4.0058
ltoes -23.7753
658
root 4.05008 14.3359 15.2308 32.4428 -22.6866 -10.0063
lowerback 18.8521 1.51592 7.00192
upperback -3.60787 3.86215 0.900317
thorax -14.3806 1.21307 -4.13309
lowerneck 4.45246 -12.6207 -22.8749
upperneck -39.5508 -11.7911 49.7977
head -5.66583 -9.24085 30.6447
rclavicle -3.16068e-014 3.37934e-015
rhumerus -37.7791 -21.4252 -68.7697
rradius 14.2612
rwrist 70.8807
rhand -40.5815 -1.45718
rfingers 7.12502
rthumb -13.5283 -30.9977
lclavicle -3.16068e-014 3.37934e-015
lhumerus -42.7447 -6.4956 81.7926
lradius 24.6319
lwrist -10.2683
lhand -21.4752 -37.0312
lfingers 7.12502
lthumb 4.91553 -7.10824
rfemur -69.0463 2.32249 31.5357
rtibia 64.4784
rfoot -21.9402 1.05197
rtoes -6.08668
lfemur -74.9772 8.04532 -12.8678
ltibia 67.6341
lfoot -19.121 4.15039
ltoes -23.8519
659
root 4.04643 14.4207 15.2804 32.416 -22.7434 -9.91297
lowerback 18.5488 1.50155 6.97671
upperback -3.7006 3.80891 0.84316
thorax -14.3116 1.19073 -4.15427
lowerneck 4.43486 -12.6318 -22.9105
upperneck -39.6186 -11.818 49.8568
head -5.65786 -9.25335 30.7362
rclavicle 3.37934e-015 6.65929e-014
rhumerus -35.9737 -17.8036 -72.2893
rradius 14.8673
rwrist 65.8636
rhand -37.573 -2.46201
rfingers 7.12502
rthumb -10.6274 -32.1733
lclavicle 3.37934e-015 6.65929e-014
lhumerus -42.2724 -6.54114 82.2109
lradius 25.574
lwrist -9.11009
lhand -17.0269 -30.0833
lfingers 7.12502
lthumb 9.20936 -0.304405
rfemur -68.1658 2.34144 31.2969
rtibia 63.31
rfoot -21.591 0.948716
rtoes -6.88184
lfemur -74.0553 7.84401 -12.9077
ltibia 66.5281
lfoot -18.8599 4.29083
ltoes -23.9377
660
root 4.0429 14.5041 15.3307 32.3866 -22.8057 -9.8274
lowerback 18.2298 1.4796 6.95555
upperback -3.7939 3.74535 0.786666
thorax -14.2346 1.16368 -4.17338
lowerneck 4.421 -12.6241 -22.9485
upperneck -39.6244 -11.8637 49.8459
head -5.67106 -9.24912 30.8986
rclavicle -3.05134e-014 3.02153e-014
rhumerus -34.3939 -14.7275 -75.1756
rradius 15.3574
rwrist 61.6632
rhand -35.3435 -3.17729
rfingers 7.12502
rthumb -8.47632 -32.9872
lclavicle -3.05134e-014 3.02153e-014
lhumerus -41.8377 -6.5979 82.6363
lradius 26.593
lwrist -8.03732
lhand -12.7701 -24.143
lfingers 7.12502
lthumb 13.3148 5.41163
rfemur -67.2769 2.37478 31.0576
rtibia 62.1406
rfoot -21.2392 0.851095
rtoes -7.60963
lfemur -73.1328 7.65687 -12.9518
ltibia 65.427
lfoot -18.5959 4.42765
ltoes -24.0296
661
root 4.03937 14.5855 15.3813 32.3565 -22.8749 -9.753
lowerback 17.8976 1.45485 6.94124
upperback -3.88891 3.6784 0.728064
thorax -14.1512 1.13458 -4.19739
lowerneck 4.41782 -12.6026 -22.9866
upperneck -39.6326 -11.8533 49.8881
head -5.66768 -9.23848 30.9775
rclavicle -1.86858e-014 7.35503e-015
rhumerus -32.9623 -12.245 -77.511
rradius 15.7243
rwrist 58.373
rhand -33.9409 -3.45239
rfingers 7.12502
rthumb -7.12254 -33.3125
lclavicle -1.86858e-014 7.35503e-015
lhumerus -41.4139 -6.63455 83.0352
lradius 27.5873
lwrist -7.16141
lhand -8.97913 -19.4177
lfingers 7.12502
lthumb 16.9665 9.86124
rfemur -66.3863 2.43493 30.8167
rtibia 60.9734
rfoot -20.8783 0.749498
rtoes -8.26455
lfemur -72.2173 7.48859 -12.9959
ltibia 64.3352
lfoot -18.3249 4.55403
ltoes -24.124
662
root 4.03595 14.6653 15.4323 32.3159 -22.9604 -9.67432
lowerback 17.5489 1.42908 6.92087
upperback -3.98492 3.60646 0.662456
thorax -14.0592 1.10365 -4.22396
lowerneck 4.43167 -12.5677 -23.0237
upperneck -39.6117 -11.8309 49.9146
head -5.66929 -9.21905 31.0478
rclavicle 1.799e-014 -1.98785e-015
rhumerus -31.6258 -10.1841 -79.4694
rradius 16.032
rwrist 55.8295
rhand -33.144 -3.39069
rfingers 7.12502
rthumb -6.3532 -33.2754
lclavicle 1.799e-014 -1.98785e-015
lhumerus -40.9955 -6.63901 83.3979
lradius 28.5017
lwrist -6.49369
lhand -5.80592 -15.9559
lfingers 7.12502
lthumb 20.0189 13.0329
rfemur -65.4886 2.51737 30.556
rtibia 59.8084
rfoot -20.5099 0.656731
rtoes -8.73948
lfemur -71.2987 7.33502 -13.0576
ltibia 63.2509
lfoot -18.0516 4.67662
ltoes -24.2242
663
root 4.03266 14.7432 15.4837 32.2655 -23.0536 -9.59967
lowerback 17.1945 1.40169 6.9058
upperback -4.08556 3.53289 0.592279
thorax -13.9685 1.07096 -4.25841
lowerneck 4.4584 -12.5245 -23.0627
upperneck -39.5516 -11.8041 49.929
head -5.66525 -9.19548 31.1007
rclavicle -1.05157e-013 1.27222e-014
rhumerus -30.3663 -8.4485 -81.1503
rradius 16.3239
rwrist 53.9688
rhand -32.8044 -3.02616
rfingers 7.12502
rthumb -6.02538 -32.9205
lclavicle -1.05157e-013 1.27222e-014
lhumerus -40.5973 -6.64379 83.7449
lradius 29.3337
lwrist -5.92494
lhand -3.3522 -13.6771
lfingers 7.12502
lthumb 22.3759 15.047
rfemur -64.5822 2.61794 30.2886
rtibia 58.6469
rfoot -20.1322 0.55663
rtoes -9.18519
lfemur -70.3783 7.19362 -13.124
ltibia 62.1777
lfoot -17.7761 4.79515
ltoes -24.3376
664
root 4.02961 14.8196 15.5358 32.2033 -23.1533 -9.53146
lowerback 16.8334 1.37012 6.89869
upperback -4.19216 3.45534 0.5219
thorax -13.8808 1.03535 -4.29666
lowerneck 4.50868 -12.469 -23.1115
upperneck -39.4469 -11.7723 49.9286
head -5.65664 -9.16652 31.1392
rclavicle 2.84262e-014 -2.28602e-014
rhumerus -29.1747 -6.87855 -82.6598
rradius 16.6609
rwrist 52.615
rhand -32.6307 -2.49476
rfingers 7.12502
rthumb -5.85771 -32.3938
lclavicle 2.84262e-014 -2.28602e-014
lhumerus -40.244 -6.68 84.1059
lradius 30.1194
lwrist -5.296
lhand -1.64239 -12.3445
lfingers 7.12502
lthumb 24.0163 16.173
rfemur -63.6609 2.73371 30.0182
rtibia 57.4875
rfoot -19.7489 0.454816
rtoes -9.59005
lfemur -69.449 7.06283 -13.1915
ltibia 61.1148
lfoot -17.5026 4.91275
ltoes -24.4671
